<svg xmlns="http://www.w3.org/2000/svg" xmlns:xlink="http://www.w3.org/1999/xlink" t="1680342656168" class="icon" viewBox="0 0 1024 1024" version="1.1" p-id="2653" width="202" height="250"><path d="M789.333333 746.666667C768 234.666667 234.666667 128 234.666667 128s29.312 75.456 48.96 179.882667L384 341.333333h-94.613333c2.944 18.730667 5.504 38.08 7.445333 57.984L426.666667 448h-126.378667c4.352 101.802667-9.664 210.730667-65.621333 298.666667h554.666666z" fill="#41b883" p-id="2654" data-spm-anchor-id="a313x.7781069.0.i17" class=""/><path d="M704 725.333333l-469.333333 21.333334h554.666666C768 234.666667 234.666667 128 234.666667 128s7.146667 18.453333 16.768 49.664c12.522667 3.114667 28.224 7.445333 48.64 13.994667C434.176 239.296 668.010667 396.992 704 725.333333z" fill="#417db7" p-id="2655" data-spm-anchor-id="a313x.7781069.0.i20" class=""/><path d="M938.666667 725.333333c-64 0-85.333333-42.666667-85.333334-42.666666s-21.333333 42.666667-85.333333 42.666666-85.333333-42.666667-85.333333-42.666666-21.333333 42.666667-85.333334 42.666666-85.333333-42.666667-85.333333-42.666666-21.333333 42.666667-85.333333 42.666666-85.333333-42.666667-85.333334-42.666666-21.333333 42.666667-85.333333 42.666666-85.333333-42.666667-85.333333-42.666666-21.333333 42.666667-85.333334 42.666666v170.666667h853.333334v-170.666667z" fill="#90CAF9" p-id="2656"/><path d="M938.666667 810.666667c-64 0-85.333333-42.666667-85.333334-42.666667s-21.333333 42.666667-85.333333 42.666667-85.333333-42.666667-85.333333-42.666667-21.333333 42.666667-85.333334 42.666667-85.333333-42.666667-85.333333-42.666667-21.333333 42.666667-85.333333 42.666667-85.333333-42.666667-85.333334-42.666667-21.333333 42.666667-85.333333 42.666667-85.333333-42.666667-85.333333-42.666667-21.333333 42.666667-85.333334 42.666667v85.333333h853.333334v-85.333333z" fill="#2196F3" p-id="2657"/></svg>